<svg t="1715776983773" class="icon" viewBox="0 0 1024 1024" version="1.1" xmlns="http://www.w3.org/2000/svg"
          p-id="6057" width="200" height="200">
          <path
            d="M896 512a384 384 0 1 0-384 384 384 384 0 0 0 384-384z m64 0A448 448 0 1 1 512 64a448 448 0 0 1 448 448z"
            p-id="6058"></path>
          <path
            d="M425.28 310.72a32 32 0 0 1 45.44-45.44l224 224a32 32 0 0 1 0 45.44l-224 224a32 32 0 0 1-45.44-45.44L626.88 512z"
            p-id="6059"></path>
        </svg>