<?xml version="1.0" standalone="no"?><!DOCTYPE svg PUBLIC "-//W3C//DTD SVG 1.1//EN" "http://www.w3.org/Graphics/SVG/1.1/DTD/svg11.dtd"><svg t="1727791653676" class="icon" viewBox="0 0 1024 1024" version="1.1" xmlns="http://www.w3.org/2000/svg" p-id="5077" xmlns:xlink="http://www.w3.org/1999/xlink" width="200" height="200"><path d="M545.152 383.248c-13.617-25.135-49.688-25.135-63.306 0l-42.73 78.872-88.216 16.266c-28.113 5.184-39.259 39.49-19.563 60.208l61.807 65.012-11.79 88.925c-3.757 28.338 25.425 49.54 51.216 37.21l80.929-38.692 80.93 38.692c25.79 12.33 54.972-8.872 51.215-37.21l-11.789-88.925 61.806-65.012c19.697-20.718 8.55-55.024-19.562-60.208l-88.216-16.266-42.731-78.872z m-56.141 121.129l24.488-45.201 24.489 45.201a35.999 35.999 0 0 0 25.125 18.254l50.555 9.322-35.421 37.258a36.003 36.003 0 0 0-9.597 29.536l6.757 50.961-46.38-22.173a35.998 35.998 0 0 0-31.056 0l-46.379 22.173 6.756-50.961a35.996 35.996 0 0 0-9.597-29.536l-35.42-37.258 50.555-9.322a36 36 0 0 0 25.125-18.254z" fill="#323338" p-id="5078"></path><path d="M620.765 99.28A15.997 15.997 0 0 0 608.888 94H194c-17.673 0-32 14.327-32 32v771c0 17.673 14.327 32 32 32h640c17.673 0 32-14.327 32-32V377.153a16 16 0 0 0-4.122-10.72L620.765 99.28zM242 849V174h322l222 250v425H242z" fill="#323338" p-id="5079"></path></svg>