<?xml version="1.0" standalone="no"?><!DOCTYPE svg PUBLIC "-//W3C//DTD SVG 1.1//EN" "http://www.w3.org/Graphics/SVG/1.1/DTD/svg11.dtd"><svg t="1727791701793" class="icon" viewBox="0 0 1024 1024" version="1.1" xmlns="http://www.w3.org/2000/svg" p-id="6951" xmlns:xlink="http://www.w3.org/1999/xlink" width="200" height="200"><path d="M739.555556 105.244444c142.222222-2.844444 233.244444 119.466667 227.555555 227.555556-14.222222 219.022222-184.888889 307.2-432.355555 546.133333l-22.755556 19.911111-22.755556-19.911111C241.777778 640 65.422222 546.133333 56.888889 332.8c-5.688889-119.466667 93.866667-230.4 227.555555-227.555556 65.422222 2.844444 125.155556 22.755556 167.822223 76.8l56.888889 71.111112c2.844444 2.844444 2.844444 2.844444 5.688888 0l28.444445-36.977778c42.666667-54.044444 133.688889-110.933333 196.266667-110.933334m2.844444-56.888888c-88.177778 0-173.511111 42.666667-230.4 113.777777-56.888889-68.266667-142.222222-113.777778-230.4-113.777777C125.155556 48.355556 0 167.822222 0 335.644444c0 216.177778 173.511111 327.111111 438.044444 580.266667l73.955556 71.111111 73.955556-71.111111c264.533333-253.155556 438.044444-372.622222 438.044444-568.888889S901.688889 48.355556 742.4 48.355556z" fill="#545E68" p-id="6952"></path></svg>